<mxfile host="app.diagrams.net" modified="2023-10-09T07:26:00.461Z" agent="Mozilla/5.0 (Macintosh; Intel Mac OS X 10_15_7) AppleWebKit/537.36 (KHTML, like Gecko) Chrome/117.0.0.0 Safari/537.36" version="22.0.4" etag="tM0GAnJKc0yffy5jqpJ-" type="github">
  <diagram name="第 1 页" id="QAl8Z6Mr9GWHQQ-itcnb">
    <mxGraphModel>
      <root>
        <mxCell id="0" />
        <mxCell id="1" parent="0" />
      </root>
    </mxGraphModel>
  </diagram>
</mxfile>
